<?xml version="1.0" encoding="UTF-8" standalone="no"?>
<!-- Created with Inkscape (http://www.inkscape.org/) -->

<svg
   xmlns:dc="http://purl.org/dc/elements/1.1/"
   xmlns:cc="http://creativecommons.org/ns#"
   xmlns:rdf="http://www.w3.org/1999/02/22-rdf-syntax-ns#"
   xmlns:svg="http://www.w3.org/2000/svg"
   xmlns="http://www.w3.org/2000/svg"
   version="1.1"
   width="1388.0951"
   height="944.41669"
   id="svg2985">
  <metadata
     id="metadata3001">
    <rdf:RDF>
      <cc:Work
         rdf:about="">
        <dc:format>image/svg+xml</dc:format>
        <dc:type
           rdf:resource="http://purl.org/dc/dcmitype/StillImage" />
        <dc:title></dc:title>
      </cc:Work>
    </rdf:RDF>
  </metadata>
  <defs
     id="defs2999" />
  <g
     transform="matrix(0.81647028,0.57738747,-0.57738747,0.81647028,756.58916,-37.358742)"
     id="svg_5">
    <path
       d="m 248.66,-97 -8.125,46.281 0.032,0.031 c -9.932,1.6228 -19.541,4.2238 -28.719,7.6875 v -0.03099 l -30.156,-36.031 -28.344,16.375 16.094,44.125 0.062,0.031 c -7.684,6.3076 -14.727,13.375 -21.031,21.063 l -0.031,-0.094 -44.125,-16.094 -16.375,28.344 36.031,30.188 c -3.458,9.1707 -6.036,18.765 -7.656,28.688 l -0.032,-0.031 -46.281,8.125 v 32.75 l 46.281,8.125 0.032,-0.031 c 1.62,9.9223 4.198,19.517 7.656,28.688 l -36.031,30.187 16.375,28.344 44.125,-16.094 0.031,-0.094 c 6.304,7.687 13.347,14.755 21.031,21.063 l -0.062,0.031 -16.094,44.125 28.344,16.375 30.156,-36.031 v -0.032 c 9.178,3.464 18.787,6.065 28.719,7.688 l -0.032,0.031 8.125,46.281 h 32.719 l 8.125,-46.281 -0.031,-0.031 c 9.929,-1.618 19.541,-4.198 28.719,-7.656 l 30.187,36.031 28.344,-16.375 -16.125,-44.125 c 7.667,-6.291 14.706,-13.335 21,-21 l 44.156,16.094 16.344,-28.344 -36,-30.188 c 3.459,-9.1714 6.067,-18.763 7.687,-28.687 l 46.282,-8.0937 V 81.657842 l -46.282,-8.125 c -1.621,-9.9131 -4.232,-19.494 -7.687,-28.656 l 36,-30.188 -16.344,-28.344 -44.156,16.094 c -6.294,-7.6652 -13.333,-14.708 -21,-21 l 16.125,-44.126 -28.344,-16.375 -30.187,36.032 c -9.178,-3.4583 -18.79,-6.0378 -28.719,-7.6562 l 0.031,-0.031 -8.125,-46.282 H 248.66 z m 16.375,79.688 c 63.71,0 115.38,51.634 115.38,115.34 0,63.71 -51.665,115.34 -115.38,115.34 -63.71,0 -115.34,-51.634 -115.34,-115.34 0,-63.71 51.633,-115.34 115.34,-115.34 z"
       id="svg_6"
       style="stroke-width:2;stroke-linecap:round;stroke-linejoin:round" />
  </g>
  <g
     transform="matrix(0.99703169,0.07699223,-0.07699223,0.99703169,702.0941,83.436436)"
     id="svg_1">
    <path
       d="m 193.66,456 -8.125,46.281 0.0313,0.031 c -9.9316,1.623 -19.54,4.224 -28.719,7.688 v -0.031 l -30.156,-36.031 -28.344,16.375 16.094,44.125 0.062,0.031 c -7.684,6.307 -14.727,13.375 -21.031,21.062 l -0.031,-0.094 -44.125,-16.094 -16.375,28.344 36.031,30.188 c -3.458,9.17 -6.036,18.765 -7.656,28.687 l -0.032,-0.031 -46.281,8.125 v 32.75 l 46.281,8.125 0.032,-0.031 c 1.62,9.9223 4.198,19.517 7.656,28.688 l -36.031,30.188 16.375,28.344 44.125,-16.094 0.031,-0.094 c 6.304,7.687 13.347,14.755 21.031,21.062 l -0.062,0.0309 -16.094,44.125 28.344,16.375 30.156,-36.031 v -0.0312 c 9.1783,3.4637 18.787,6.0647 28.719,7.6875 l -0.0313,0.031 8.125,46.281 h 32.719 l 8.125,-46.281 -0.0312,-0.031 c 9.9296,-1.6184 19.541,-4.1977 28.719,-7.6563 l 30.187,36.031 28.344,-16.375 -16.125,-44.125 c 7.6669,-6.2915 14.706,-13.335 21,-21 l 44.156,16.094 16.344,-28.344 -36,-30.188 c 3.459,-9.1719 6.067,-18.764 7.687,-28.688 l 46.282,-8.0937 v -32.75 l -46.282,-8.125 c -1.621,-9.9132 -4.232,-19.493 -7.687,-28.656 l 36,-30.188 -16.344,-28.343 -44.156,16.093 c -6.2938,-7.665 -13.333,-14.708 -21,-21 l 16.125,-44.125 -28.344,-16.375 -30.187,36.032 c -9.1776,-3.459 -18.789,-6.038 -28.719,-7.657 l 0.0312,-0.031 -8.125,-46.281 H 193.66 z m 16.375,79.687 c 63.71,0 115.38,51.634 115.38,115.34 0,63.71 -51.665,115.34 -115.38,115.34 -63.71,0 -115.34,-51.634 -115.34,-115.34 0,-63.71 51.633,-115.34 115.34,-115.34 z"
       id="svg_2"
       style="stroke-width:2;stroke-linecap:round;stroke-linejoin:round" />
  </g>
  <g
     transform="matrix(0.91043836,-0.41364477,0.41364477,0.91043836,504.14787,-39.108902)"
     id="svg_3">
    <path
       d="m -411.53,18.828 -10.946,59.967 0.0431,0.0402 c -13.38,2.1027 -26.325,5.4728 -38.69,9.9608 v -0.04018 l -40.625,-46.686 -38.184,21.217 21.681,57.174 0.084,0.0402 c -10.352,8.172 -19.84,17.33 -28.332,27.29 l -0.0421,-0.1218 -59.444,-20.853 -22.06,36.726 48.54,39.115 c -4.6585,11.882 -8.1312,24.314 -10.314,37.17 l -0.0421,-0.0402 -62.349,10.528 v 42.434 l 62.349,10.528 0.0421,-0.0402 c 2.1828,12.857 5.6557,25.288 10.314,37.171 l -48.54,39.114 22.06,36.726 59.444,-20.853 0.0421,-0.1218 c 8.4927,9.9601 17.98,19.118 28.332,27.292 l -0.084,0.0402 -21.681,57.173 38.184,21.217 40.625,-46.686 v -0.0414 c 12.365,4.4883 25.309,7.8585 38.69,9.9614 l -0.0431,0.0402 10.946,59.967 h 44.078 l 10.946,-59.967 -0.0418,-0.0402 c 13.376,-2.0965 26.325,-5.4394 38.689,-9.9199 l 40.667,46.686 38.184,-21.217 -21.723,-57.173 c 10.329,-8.1513 19.811,-17.278 28.29,-27.21 l 59.486,20.853 22.018,-36.726 -48.498,-39.115 c 4.6599,-11.883 8.1733,-24.311 10.356,-37.17 l 62.35,-10.487 v -42.434 l -62.35,-10.528 c -2.1838,-12.844 -5.7012,-25.257 -10.356,-37.13 l 48.498,-39.115 -22.018,-36.724 -59.486,20.852 c -8.4791,-9.9316 -17.962,-19.057 -28.29,-27.21 l 21.723,-57.172003 -38.184,-21.217 -40.667,46.686 c -12.364,-4.4809 -25.313,-7.8232 -38.689,-9.9202 l 0.0418,-0.0402 -10.946,-59.967 h -44.078 v -2.5e-4 z m 22.06,103.25 c 85.828,0 155.43,66.902 155.43,149.45 0,82.55 -69.601,149.45 -155.43,149.45 -85.828,0 -155.39,-66.903 -155.39,-149.45 0,-82.55 69.559,-149.45 155.39,-149.45 z"
       id="svg_4"
       style="fill:#26963c;stroke-width:2;stroke-linecap:round;stroke-linejoin:round" />
  </g>
  <g
     transform="matrix(-0.10107366,0.99487894,-0.99487894,-0.10107366,1035.2112,464.8923)"
     id="svg_9">
    <path
       d="m 9.656,162 -8.125,46.281 0.032,0.031 c -9.932,1.623 -19.541,4.224 -28.719,7.688 v -0.031 l -30.156,-36.031 -28.344,16.375 16.094,44.125 0.062,0.031 c -7.684,6.307 -14.727,13.375 -21.031,21.062 l -0.031,-0.094 -44.125,-16.094 -16.375,28.344 36.031,30.188 c -3.458,9.17 -6.036,18.765 -7.656,28.687 l -0.032,-0.031 -46.281,8.125 v 32.75 l 46.281,8.125 0.032,-0.031 c 1.62,9.923 4.198,19.517 7.656,28.688 l -36.031,30.187 16.375,28.344 44.125,-16.094 0.031,-0.094 c 6.304,7.687 13.347,14.755 21.031,21.063 l -0.062,0.031 -16.094,44.125 28.344,16.375 30.156,-36.031 v -0.031 c 9.178,3.463 18.787,6.064 28.719,7.687 l -0.032,0.031 8.125,46.281 H 42.375 L 50.5,505.781 50.469,505.75 c 9.929,-1.618 19.541,-4.198 28.719,-7.656 l 30.187,36.031 28.344,-16.375 -16.125,-44.125 c 7.667,-6.292 14.706,-13.335 21,-21 l 44.156,16.094 16.344,-28.344 -36,-30.187 c 3.459,-9.172 6.067,-18.764 7.687,-28.688 l 46.282,-8.094 v -32.75 l -46.282,-8.125 c -1.621,-9.913 -4.232,-19.493 -7.687,-28.656 l 36,-30.188 -16.344,-28.343 -44.156,16.093 c -6.294,-7.665 -13.333,-14.708 -21,-21 l 16.125,-44.124 -28.344,-16.375 -30.187,36.031 C 70.01,212.51 60.398,209.931 50.469,208.313 L 50.5,208.281 42.375,162 H 9.656 z m 16.375,79.687 c 63.71,0 115.38,51.634 115.38,115.34 0,63.71 -51.665,115.34 -115.38,115.34 -63.71,0 -115.34,-51.634 -115.34,-115.34 0,-63.71 51.633,-115.34 115.34,-115.34 z"
       id="svg_10"
       style="stroke-width:2;stroke-linecap:round;stroke-linejoin:round" />
  </g>
  <g
     transform="matrix(0.99703169,0.07699223,-0.07699223,0.99703169,694.60746,57.625493)"
     id="svg_7">
    <path
       d="m 524.66,346 -8.125,46.281 0.032,0.031 c -9.932,1.623 -19.541,4.224 -28.719,7.688 v -0.031 l -30.156,-36.031 -28.344,16.375 16.094,44.125 0.062,0.031 c -7.684,6.307 -14.727,13.375 -21.031,21.062 l -0.031,-0.094 -44.125,-16.094 -16.375,28.344 36.031,30.188 c -3.458,9.17 -6.036,18.765 -7.656,28.687 l -0.032,-0.031 -46.281,8.125 v 32.75 l 46.281,8.125 0.032,-0.031 c 1.62,9.922 4.198,19.517 7.656,28.688 l -36.031,30.187 16.375,28.344 44.125,-16.094 0.031,-0.094 c 6.304,7.687 13.347,14.755 21.031,21.063 l -0.062,0.031 -16.094,44.125 28.344,16.375 30.156,-36.031 v -0.031 c 9.178,3.463 18.787,6.064 28.719,7.687 l -0.032,0.031 8.125,46.281 h 32.719 l 8.125,-46.281 -0.031,-0.031 c 9.929,-1.618 19.541,-4.198 28.719,-7.656 l 30.187,36.031 28.344,-16.375 -16.125,-44.125 c 7.667,-6.292 14.706,-13.335 21,-21 l 44.156,16.094 16.344,-28.344 -36,-30.187 c 3.459,-9.172 6.067,-18.764 7.687,-28.688 l 46.282,-8.094 v -32.75 l -46.282,-8.125 c -1.621,-9.913 -4.232,-19.493 -7.687,-28.656 l 36,-30.188 -16.344,-28.343 -44.156,16.093 c -6.294,-7.665 -13.333,-14.708 -21,-21 l 16.125,-44.125 -28.344,-16.375 -30.187,36.032 c -9.178,-3.459 -18.79,-6.038 -28.719,-7.657 l 0.031,-0.031 L 557.379,346 H 524.66 z m 16.375,79.687 c 63.71,0 115.38,51.634 115.38,115.34 0,63.71 -51.665,115.34 -115.38,115.34 -63.71,0 -115.34,-51.634 -115.34,-115.34 0,-63.71 51.633,-115.34 115.34,-115.34 z"
       id="svg_8"
       style="stroke-width:2;stroke-linecap:round;stroke-linejoin:round" />
  </g>
</svg>
